<svg fill="none" version="1.1" viewBox="0 0 60 60" xmlns="http://www.w3.org/2000/svg">
 <path d="m48.358 33.727c-0.0354-0.6828-0.0864-1.3962-0.1614-2.1408-0.4506-4.4592-1.8246-10.72-5.8158-15.225-3.4806-3.9282-8.3454-5.9196-14.462-5.9196-2.9958 0-5.7588 0.636-8.1498 1.5432-0.1002 0.0198-0.1926 0.0588-0.2784 0.1092-4.6032 1.809-7.7688 4.5924-8.4504 5.6664-5.1726 4.3824-8.112 10.693-8.112 17.53 0 0.0756 0.0096 0.1512 0.0282 0.2244 0.0498 0.192 1.2738 4.7412 6.5574 7.1298 7.3746 3.3336 16.751 6.9102 26.762 6.9102 1.9872 0 3.9984-0.1404 6.024-0.4524 13.091-2.0124 14.77-5.0394 14.77-7.452 6e-4 -0.5358 6e-4 -2.16-8.712-7.9236zm-7.329-16.177c6.2298 7.0254 5.691 19.016 5.4654 21.846l-10.486 2.622c0.1152-2.5056 0.2796-8.3916-0.3606-13.75-0.7758-6.4872-2.7888-13.782-10.908-15.772 1.014-0.1602 2.0742-0.2544 3.1794-0.2544 5.5758 0 9.987 1.7856 13.11 5.3082zm-20.918-3.7824c8.403 0.027 12.521 4.437 13.75 14.713 0.597 4.9986 0.4662 10.621 0.3582 13.205l-3.2622-1.8474c0.27-2.805 1.0014-14.357-4.5354-19.817-3.4998-3.4506-7.1964-4.485-10.103-4.3446 1.071-0.6642 2.3472-1.3362 3.7932-1.9092zm-7.647 5.1552c0.0636-0.0468 0.1242-0.0948 0.1794-0.1422 0.1776-0.1428 0.3528-0.2868 0.5352-0.4248 2.0556-1.335 7.2054-1.7586 11.98 2.9472 4.7592 4.6932 4.2756 15.113 4.0272 18.101-2.3544-0.1008-9.2994-0.5688-14.96-2.6778-3.7698-1.404-6.7014-3.8094-8.7186-7.1436 1.1472-4.1478 3.54-7.8516 6.9576-10.66zm29.563 28.401c-11.762 1.8108-23.159-2.4264-31.771-6.3192-4.1232-1.863-5.3322-5.211-5.5266-5.8392 6e-3 -1.062 0.0978-2.1078 0.2544-3.1362 2.6766 3.5862 6.0834 5.4414 8.613 6.3834 6.6288 2.4696 14.659 2.7768 16.157 2.8128l4.8462 2.745c6e-3 0.0036 0.0132 0.0042 0.0192 0.0078 0.06 0.0324 0.1236 0.0594 0.1908 0.0774 0.012 3e-3 0.024 0.0036 0.036 6e-3 0.045 0.0102 0.09 0.0198 0.1374 0.0234 0.0198 0.0018 0.0396 0.0024 0.0588 0.0024h6e-4 6e-4 0.0012c0.069 0 0.1356-0.0102 0.1998-0.0252 0.0054-0.0012 0.0114-6e-4 0.0168-0.0018l12.288-3.0726c0.3618-0.09 0.63-0.3942 0.675-0.7644 0.0126-0.1026 0.2076-1.7736 0.1968-4.284 4.2978 2.9262 6.6924 5.0766 6.849 5.712 6e-4 2.4126-4.4556 4.3212-13.243 5.6724z" fill="url(#paint0_linear_615_331)"/>
 <defs>
  <linearGradient id="paint0_linear_615_331" x1="2.9287" x2="48.508" y1="10.442" y2="46.147" gradientUnits="userSpaceOnUse">
   <stop stop-color="#74197B" offset="0"/>
   <stop stop-color="#B32D6B" offset=".27772"/>
   <stop stop-color="#D13B54" offset=".42045"/>
   <stop stop-color="#E8614C" offset=".58581"/>
   <stop stop-color="#F3B364" offset="1"/>
  </linearGradient>
 </defs>
</svg>
