<svg fill="none" version="1.1" viewBox="0 0 60 60" xmlns="http://www.w3.org/2000/svg">
 <path d="m49.148 22.857c0.0675-10.577-8.4824-19.238-19.059-19.306-10.591-0.06278-19.238 8.4823-19.306 19.059-0.049 7.6501 4.4107 14.294 10.884 17.414l0.0628 16.71c0.0012 0.3587 0.2158 0.6816 0.5459 0.8215 0.113 0.0484 0.2325 0.0717 0.3509 0.0717 0.2266 0 0.4496-0.0861 0.62-0.2481l6.6283-6.3311 6.6731 6.2869c0.2607 0.2463 0.6446 0.3115 0.9716 0.1698 0.3288-0.1423 0.5411-0.467 0.5399-0.8257l-0.0568-16.533c6.5332-3.0284 11.097-9.6244 11.146-17.289zm-12.89 31.741-5.7738-5.4391c-0.3468-0.327-0.8891-0.3252-1.2341 0.0042l-5.735 5.4779-0.052-13.863c1.9946 0.7211 4.1404 1.1241 6.3789 1.1384 0.0419 0 0.0831 6e-4 0.125 6e-4 2.1847 0 4.2839-0.3725 6.2432-1.0493l0.0478 13.731zm-6.291-14.475c-0.0371 0-0.0759-5e-4 -0.113-5e-4 -9.5885-0.0616-17.339-7.912-17.277-17.501 0.0616-9.5508 7.8504-17.277 17.387-17.277h0.113c9.5878 0.06218 17.338 7.9125 17.277 17.501-0.061 9.5507-7.8504 17.278-17.387 17.278z" fill="url(#paint0_linear_616_351)"/>
 <path d="m38.684 19.977-5.4528-0.8274-2.4071-4.959c-0.1489-0.3073-0.4598-0.5028-0.8006-0.5052h-6e-3c-0.339 0-0.6493 0.1913-0.8018 0.495l-2.4705 4.9279-5.4606 0.7569c-0.3378 0.0473-0.6206 0.2816-0.7276 0.6057-0.1076 0.3241-0.0221 0.681 0.2212 0.9208l3.9228 3.8737-0.9662 5.4277c-0.0598 0.336 0.0759 0.6768 0.351 0.8795 0.275 0.2027 0.6409 0.2308 0.944 0.0742l4.895-2.5339 4.8651 2.5966c0.1327 0.0706 0.2774 0.1059 0.4221 0.1059 0.1842 0 0.3671-0.0568 0.5226-0.168 0.2774-0.1985 0.4179-0.5375 0.3623-0.8748l-0.8969-5.4396 3.9725-3.8235c0.2457-0.2368 0.336-0.5926 0.2331-0.9178-0.1046-0.3247-0.3832-0.5632-0.7216-0.6147zm-5.0678 4.391c-0.2122 0.2045-0.3115 0.5004-0.263 0.7922l0.678 4.1117-3.6777-1.9635c-0.1321-0.0705-0.2774-0.1058-0.4227-0.1058-0.1417 0-0.2828 0.0335-0.412 0.1005l-3.6997 1.915 0.73-4.1027c0.052-0.2906-0.0425-0.5878-0.2529-0.7952l-2.965-2.9279 4.1279-0.5728c0.2924-0.0407 0.5465-0.2224 0.6786-0.4861l1.8672-3.7243 1.8194 3.7482c0.1292 0.2655 0.3809 0.4508 0.6727 0.4951l4.1225 0.6254-3.0033 2.8902z" fill="url(#paint1_linear_616_351)"/>
 <defs>
  <linearGradient id="paint0_linear_616_351" x1="10.783" x2="55.666" y1="3.5505" y2="21.572" gradientUnits="userSpaceOnUse">
   <stop stop-color="#74197B" offset="0"/>
   <stop stop-color="#B32D6B" offset=".27772"/>
   <stop stop-color="#D13B54" offset=".42045"/>
   <stop stop-color="#E8614C" offset=".58581"/>
   <stop stop-color="#F3B364" offset="1"/>
  </linearGradient>
  <linearGradient id="paint1_linear_616_351" x1="20.512" x2="39.576" y1="13.686" y2="24.954" gradientUnits="userSpaceOnUse">
   <stop stop-color="#74197B" offset="0"/>
   <stop stop-color="#B32D6B" offset=".27772"/>
   <stop stop-color="#D13B54" offset=".42045"/>
   <stop stop-color="#E8614C" offset=".58581"/>
   <stop stop-color="#F3B364" offset="1"/>
  </linearGradient>
 </defs>
</svg>
