<svg fill="none" version="1.1" viewBox="0 0 100 71" xmlns="http://www.w3.org/2000/svg">
 <g clip-path="url(#clip0_53_360)">
  <path d="m97.94 10.956c-1.1532-4.2834-4.5305-7.6606-8.8138-8.8138-7.8254-2.1417-39.127-2.1417-39.127-2.1417s-31.301 0-39.127 2.0593c-4.201 1.1532-7.6606 4.6128-8.8138 8.8962-2.0593 7.8253-2.0593 24.053-2.0593 24.053s0 16.31 2.0593 24.053c1.1532 4.2833 4.5305 7.6606 8.8138 8.8138 7.9077 2.1417 39.127 2.1417 39.127 2.1417s31.301 0 39.127-2.0593c4.2833-1.1533 7.6606-4.5305 8.8138-8.8138 2.0593-7.8254 2.0593-24.053 2.0593-24.053s0.0824-16.31-2.0593-24.135z" fill="#fff"/>
  <path d="m66.062 35.009-26.03-14.992v29.983l26.03-14.992z" fill="url(#paint0_linear_53_360)"/>
 </g>
 <defs>
  <linearGradient id="paint0_linear_53_360" x1="40.033" x2="68.518" y1="20.018" y2="34.012" gradientUnits="userSpaceOnUse">
   <stop stop-color="#74197B" offset="0"/>
   <stop stop-color="#B32D6B" offset=".27772"/>
   <stop stop-color="#D13B54" offset=".42045"/>
   <stop stop-color="#E8614C" offset=".58581"/>
   <stop stop-color="#F3B364" offset="1"/>
  </linearGradient>
  <clipPath id="clip0_53_360">
   <rect transform="translate(0 .00097656)" width="100" height="70.016" fill="#fff"/>
  </clipPath>
 </defs>
</svg>
