<svg fill="none" version="1.1" viewBox="0 0 60 60" xmlns="http://www.w3.org/2000/svg">
 <path d="m57.616 23.579c-0.3139-0.9656-1.133-1.6562-2.1369-1.8014l-15.947-2.3175-7.1317-14.451c-0.449-0.91-1.3584-1.4756-2.3736-1.4756-1.0146 0-1.9246 0.56561-2.3743 1.4756l-7.1317 14.451-15.947 2.3175c-1.0051 0.1458-1.8236 0.8358-2.1375 1.8014-0.3139 0.9656-0.0568 2.0054 0.67024 2.7145l11.539 11.248-2.7354 15.95c-0.1704 0.9919 0.2272 1.9797 1.0368 2.5776 0.4664 0.3443 1.0164 0.5201 1.5701 0.5201 0.4077 0 0.8173-0.0951 1.1976-0.2876l14.642-7.4109 13.932 7.3242c0.8986 0.473 1.9671 0.3958 2.788-0.2015 0.8215-0.5967 1.2251-1.5892 1.0535-2.5894l-2.7247-15.882 11.539-11.248c0.7271-0.7091 0.9842-1.7495 0.6703-2.7151zm-1.9217 1.4302-12.215 11.906 2.8837 16.812c0.0562 0.3276-0.0712 0.6397-0.3396 0.8353-0.2685 0.1961-0.6045 0.2206-0.8987 0.0651l-14.751-7.7553-15.468 7.8289c-0.2954 0.1488-0.6278 0.1201-0.8927-0.0748-0.2648-0.1955-0.3898-0.5064-0.3342-0.8311l2.895-16.879-12.215-11.906c-0.23796-0.232-0.31868-0.5591-0.21584-0.8753 0.10284-0.3157 0.36053-0.5334 0.68938-0.5812l16.88-2.4532 7.5491-15.296c0.1471-0.29835 0.4335-0.47593 0.7653-0.47593 0.3324 0 0.6182 0.17758 0.7653 0.47593l7.549 15.296 16.88 2.4532c0.3288 0.0478 0.5859 0.2649 0.6888 0.5812 0.1028 0.3162 0.0221 0.6427-0.2159 0.8747z" fill="url(#paint0_linear_616_346)"/>
 <defs>
  <linearGradient id="paint0_linear_616_346" x1="2.3042" x2="58.106" y1="3.5336" y2="36.534" gradientUnits="userSpaceOnUse">
   <stop stop-color="#74197B" offset="0"/>
   <stop stop-color="#B32D6B" offset=".27772"/>
   <stop stop-color="#D13B54" offset=".42045"/>
   <stop stop-color="#E8614C" offset=".58581"/>
   <stop stop-color="#F3B364" offset="1"/>
  </linearGradient>
 </defs>
</svg>
