<svg fill="none" version="1.1" viewBox="0 0 60 60" xmlns="http://www.w3.org/2000/svg">
 <path d="m53.73 16.518-2.73-6.918c-0.0235-0.14885-0.0842-0.28936-0.1765-0.40846-0.0923-0.11911-0.2132-0.21296-0.3515-0.27282-0.1382-0.05986-0.2894-0.0838-0.4394-0.06959s-0.294 0.06611-0.4186 0.15087l-7.344 2.712c-0.1999 0.0964-0.3571 0.2633-0.4414 0.4686-0.0844 0.2053-0.0898 0.4346-0.0154 0.6437s0.2235 0.3833 0.4185 0.4892c0.1951 0.1059 0.4224 0.136 0.6383 0.0845l5.484-2.04-9.156 20.142-4.674-7.956c-0.083-0.1412-0.2028-0.2571-0.3467-0.3352-0.144-0.0781-0.3064-0.1154-0.47-0.108s-0.322 0.0593-0.4583 0.15c-0.1363 0.0908-0.2452 0.2171-0.315 0.3652l-6.726 14.352-5.412-10.368c-0.0735-0.1534-0.1908-0.2814-0.3372-0.368-0.1463-0.0865-0.3151-0.1276-0.4848-0.1181-0.1607 0.0046-0.3172 0.052-0.4533 0.1375s-0.2468 0.2058-0.3207 0.3486l-8.4 18.366v-36.066c0-0.23869-0.0948-0.46761-0.2636-0.6364-0.1688-0.16878-0.3977-0.2636-0.63641-0.2636-0.23869 0-0.46761 0.09482-0.6364 0.2636-0.16878 0.16879-0.2636 0.39771-0.2636 0.6364v40.2 0.06c-0.00194 0.0339-0.00194 0.068 0 0.1019v0.0841 0.084l0.042 0.084 0.042 0.0719 0.054 0.0721 0.054 0.066 0.066 0.06 0.066 0.054 0.09 0.054 0.054 0.03 0.138 0.0479h40.41c0.2387 0 0.4676-0.0948 0.6364-0.2636 0.1688-0.1687 0.2636-0.3977 0.2636-0.6363 0-0.2387-0.0948-0.4677-0.2636-0.6364-0.1688-0.1688-0.3977-0.2637-0.6364-0.2637h-38.718l8.754-19.122 5.4 10.368c0.0776 0.1489 0.1954 0.2732 0.34 0.3587s0.3102 0.1288 0.4782 0.1251c0.1679-0.0037 0.3315-0.0544 0.4721-0.1463 0.1407-0.0919 0.2528-0.2213 0.3237-0.3735l6.774-14.448 4.686 7.974c0.0835 0.1422 0.2044 0.2588 0.3497 0.337 0.1452 0.0781 0.3091 0.1149 0.4738 0.1062 0.1647-0.0086 0.3239-0.0624 0.4601-0.1554 0.1363-0.093 0.2443-0.2216 0.3124-0.3718l9.918-21.756 2.016 5.1119c0.0916 0.2161 0.2641 0.3878 0.4805 0.4786 0.2165 0.0908 0.4598 0.0934 0.6781 0.0073 0.2184-0.0861 0.3945-0.2541 0.4907-0.4681 0.0963-0.2141 0.1052-0.4573 0.0247-0.6777z" fill="url(#paint0_linear_616_338)"/>
 <defs>
  <linearGradient id="paint0_linear_616_338" x1="8.9985" x2="53.668" y1="8.8451" y2="35.722" gradientUnits="userSpaceOnUse">
   <stop stop-color="#74197B" offset="0"/>
   <stop stop-color="#B32D6B" offset=".27772"/>
   <stop stop-color="#D13B54" offset=".42045"/>
   <stop stop-color="#E8614C" offset=".58581"/>
   <stop stop-color="#F3B364" offset="1"/>
  </linearGradient>
 </defs>
</svg>
