<svg width="157" height="65" viewBox="0 0 157 65" fill="none" xmlns="http://www.w3.org/2000/svg">
<g clip-path="url(#clip0_763_378)">
<path d="M152.95 26.7C152.05 26.7 151.15 26.4 150.65 26.1C140.15 20.6 128.15 17.4 116.55 17.4C115.05 17.4 114.05 17.5 112.65 17.6C114.85 21.1 118.65 26.1 121.15 29.2C121.85 30 122.05 30.5 122.05 31.3C122.05 32.7 120.65 34 119.15 34C118.15 34 117.55 33.6 116.65 32.5C113.55 28.8 108.75 22.3 106.55 18.6C95.55 20.5 83.25 27 75.95 32.7C75.15 33.4 74.55 33.6 73.75 33.6C72.25 33.6 70.85 32.3 70.85 30.8C70.85 29.9 71.15 29.3 72.35 28.3C83.45 19.1 100.65 11.8 115.15 11.8C120.95 11.8 126.55 12.6 131.95 13.9C135.25 14.7 140.05 16.3 144.25 18.1C133.45 11.5 119.75 5.59999 111.15 5.59999C108.95 5.59999 107.65 6.29999 107.65 7.79999C107.65 8.69999 108.15 9.79999 108.85 11C107.15 11.2 104.85 11.5 103.15 12C102.25 10.4 101.65 8.59999 101.65 6.69999C101.65 2.49999 104.35 -0.100006 109.85 -0.100006C122.35 -0.100006 143.25 11.5 153.75 20C154.95 21 156.15 22.2 156.15 23.6C156.05 25.1 154.85 26.7 152.95 26.7Z" fill="white"/>
<path d="M17.45 51.4C17.45 50.7 17.95 50.2 18.55 50.2C19.25 50.2 19.65 50.7 19.65 51.4V52.7C20.25 51.5 21.65 50.2 22.85 50.2C23.65 50.2 24.05 50.7 24.05 51.3C24.05 51.9 23.75 52.3 22.75 52.6C20.65 53.2 19.75 54.3 19.75 56.6V63C19.75 63.7 19.35 64.2 18.65 64.2C17.95 64.2 17.55 63.7 17.55 63V51.4H17.45Z" fill="white"/>
<path d="M68.55 51.4C68.55 50.7 69.05 50.2 69.65 50.2C70.35 50.2 70.7501 50.7 70.7501 51.4V52.7C71.3501 51.5 72.7501 50.2 73.9501 50.2C74.7501 50.2 75.15 50.7 75.15 51.3C75.15 51.9 74.8501 52.3 73.8501 52.6C71.7501 53.2 70.8501 54.3 70.8501 56.6V63C70.8501 63.7 70.4501 64.2 69.7501 64.2C69.0501 64.2 68.65 63.7 68.65 63V51.4H68.55Z" fill="white"/>
<path d="M30.55 50.2C32.75 50.2 34.25 51.1 34.25 51.9C34.25 52.4 33.85 52.9 33.35 52.9C32.55 52.9 32.15 52.2 30.55 52.2C27.95 52.2 26.65 54.5 26.65 57.2C26.65 60.1 28.15 62.2 30.55 62.2C32.25 62.2 32.65 61.5 33.45 61.5C33.95 61.5 34.25 61.8 34.25 62.4C34.25 62.9 33.85 63.3 33.05 63.7C32.35 64 31.45 64.2 30.55 64.2C26.65 64.2 24.35 61.3 24.35 57.2C24.35 53.2 26.65 50.2 30.55 50.2Z" fill="white"/>
<path d="M37.55 58.1C37.55 60.3 39.05 62.2 41.55 62.2C44.25 62.2 44.85 60.7 45.85 60.7C46.35 60.7 46.75 61.1 46.75 61.6C46.75 62.7 44.35 64.1 41.55 64.1C39.55 64.1 38.15 63.5 37.15 62.4C35.85 61.1 35.25 59.1 35.25 57.1C35.25 53.4 37.55 50.1 41.45 50.1C45.05 50.1 47.35 53.3 47.35 56.8C47.35 57.6 47.05 58 46.05 58H37.55V58.1ZM45.05 56.4C45.05 54.4 43.95 52.2 41.45 52.2C38.95 52.2 37.65 54.1 37.55 56.4H45.05Z" fill="white"/>
<path d="M51.95 63C51.95 63.7 51.55 64.2 50.85 64.2C50.15 64.2 49.75 63.7 49.75 63V46.8C49.75 46.1 50.15 45.6 50.85 45.6C51.55 45.6 51.95 46.1 51.95 46.8V63Z" fill="white"/>
<path d="M60.25 64.3C56.65 64.3 54.25 61.4 54.25 57.3C54.25 53.2 56.65 50.3 60.25 50.3C63.85 50.3 66.25 53.2 66.25 57.3C66.35 61.4 63.95 64.3 60.25 64.3ZM60.25 62.3C62.45 62.3 63.95 60.4 63.95 57.3C63.95 54.2 62.45 52.3 60.25 52.3C58.05 52.3 56.55 54.2 56.55 57.3C56.55 60.3 58.05 62.3 60.25 62.3Z" fill="white"/>
<path d="M91.0499 51.2C89.7499 55.6 87.65 62.8 87.5499 63.3C87.3499 64 86.95 64.2 86.35 64.2C85.75 64.2 85.3499 64 85.1499 63.3C84.9499 62.7 82.7499 55.2 81.5499 50.8C81.3499 50.1 81.1499 49.2 81.0499 48.5C80.9499 49.2 80.85 50 80.75 50.8C79.95 54.9 78.9499 61.3 78.6499 63.1C78.5499 63.9 78.15 64.2 77.45 64.2C76.85 64.2 76.45 63.8 76.45 63.1C76.45 62.8 76.5499 62.5 76.5499 62.1C76.5499 62.1 78.8499 48.3 79.0499 47.3C79.2499 46.2 79.85 45.6 80.75 45.6C81.55 45.6 82.2499 46.1 82.5499 47C82.7499 47.6 84.55 54 85.75 58.1C85.95 58.9 86.15 59.7 86.35 60.5C86.55 59.7 86.75 58.9 86.95 58.1C88.15 54 89.9499 47.5 90.1499 46.9C90.4499 46 91.05 45.5 91.85 45.5C92.75 45.5 93.3499 46.1 93.5499 47.2C93.75 48.3 96.0499 62 96.0499 62C96.15 62.4 96.1499 62.8 96.1499 63C96.1499 63.7 95.7499 64.1 95.1499 64.1C94.4499 64.1 94.05 63.8 93.95 63C93.65 61.3 92.75 55.2 92.0499 51.1C91.9499 50.3 91.7499 49.3 91.6499 48.4C91.5499 49.3 91.2499 50.3 91.0499 51.2Z" fill="white"/>
<path d="M100.15 46.2C100.95 46.2 101.55 46.8 101.55 47.6C101.55 48.4 100.95 49 100.15 49C99.35 49 98.75 48.4 98.75 47.6C98.75 46.8 99.35 46.2 100.15 46.2ZM101.25 51.4C101.25 50.7 100.85 50.2 100.15 50.2C99.45 50.2 99.05 50.7 99.05 51.4V63C99.05 63.7 99.45 64.2 100.15 64.2C100.85 64.2 101.25 63.7 101.25 63V51.4Z" fill="white"/>
<path d="M15.05 62.2C14.55 60.9 10.15 48.9 9.45001 47.1C9.15001 46.2 8.55001 45.6 7.65001 45.6C6.75001 45.6 6.25001 46.1 5.95001 47.1C5.65001 47.9 0.750012 60.9 0.250012 62.2C0.0500122 62.7 -0.0499878 63 -0.0499878 63.3C-0.0499878 63.9 0.450012 64.3 1.05001 64.3C1.65001 64.3 2.05001 64 2.25001 63.4C2.35001 63.1 2.95001 61.3 3.85001 59.1H11.65C12.45 61.2 13.05 62.9 13.25 63.4C13.45 63.9 13.75 64.3 14.35 64.3C14.95 64.3 15.45 63.9 15.45 63.3C15.35 63 15.25 62.8 15.05 62.2ZM4.45001 57C5.35001 54.3 6.45001 51.5 7.15001 49.5C7.35001 49 7.55001 48.4 7.65001 48C7.75001 48.5 7.95001 49 8.15001 49.5C8.85001 51.4 9.85001 54.3 10.85 57H4.45001Z" fill="white"/>
<path d="M105.25 47.4C105.25 46.7 105.65 46.2 106.35 46.2C107.05 46.2 107.45 46.7 107.45 47.4V50.4H108.35C109.05 50.4 109.45 50.8 109.45 51.4C109.45 52 109.05 52.4 108.35 52.4H107.45V63C107.45 63.7 107.05 64.2 106.35 64.2C105.65 64.2 105.25 63.7 105.25 63V52.4H104.45C103.75 52.4 103.35 52 103.35 51.4C103.35 50.8 103.75 50.4 104.45 50.4H105.25V47.4Z" fill="white"/>
<path d="M112.45 47.4C112.45 46.7 112.85 46.2 113.55 46.2C114.25 46.2 114.65 46.7 114.65 47.4V50.4H115.55C116.25 50.4 116.65 50.8 116.65 51.4C116.65 52 116.25 52.4 115.55 52.4H114.65V63C114.65 63.7 114.25 64.2 113.55 64.2C112.85 64.2 112.45 63.7 112.45 63V52.4H111.65C110.95 52.4 110.55 52 110.55 51.4C110.55 50.8 110.95 50.4 111.65 50.4H112.45V47.4Z" fill="white"/>
<path d="M135.45 63C135.45 63.7 135.05 64.2 134.35 64.2C133.65 64.2 133.25 63.7 133.25 63V46.8C133.25 46.1 133.65 45.6 134.35 45.6C135.05 45.6 135.45 46.1 135.45 46.8V63Z" fill="white"/>
<path d="M128.75 50.2C128.05 50.2 127.65 50.7 127.65 51.4V52.4C126.85 51 125.45 50.2 123.75 50.2C120.25 50.2 117.85 53.1 117.85 57.2C117.85 61.3 120.25 64.2 123.75 64.2C125.45 64.2 126.85 63.3 127.65 62V63C127.65 63.7 128.05 64.2 128.75 64.2C129.45 64.2 129.85 63.7 129.85 63V51.4C129.95 50.7 129.45 50.2 128.75 50.2ZM123.95 62.3C121.75 62.3 120.25 60.4 120.25 57.3C120.25 54.2 121.75 52.3 123.95 52.3C126.15 52.3 127.65 54.2 127.65 57.3C127.65 60.3 126.15 62.3 123.95 62.3Z" fill="white"/>
</g>
<defs>
<clipPath id="clip0_763_378">
<rect width="155.966" height="64.3" fill="white" transform="translate(0.122864)"/>
</clipPath>
</defs>
</svg>
